<?xml version="1.0" encoding="UTF-8"?>
<svg xmlns="http://www.w3.org/2000/svg" xmlns:xlink="http://www.w3.org/1999/xlink" width="2400" height="1680" viewBox="0 0 2400 1680">

<path fill-rule="nonzero" fill="rgb(0%, 0%, 0%)" fill-opacity="1" d="M 862.402344 769.066406 C 861.570312 774.753906 855.417969 782.859375 849.726562 782.027344 C 844.039062 781.199219 840.972656 771.742188 841.804688 766.054688 C 854.871094 678.011719 899.199219 601.398438 962.515625 546.789062 C 1025.851562 492.160156 1108.148438 459.550781 1197.128906 459.550781 C 1295.46875 459.550781 1384.671875 499.109375 1449.589844 563.261719 C 1503.199219 616.230469 1540.238281 685.980469 1552.179688 764.066406 C 1556.558594 792.746094 1535.890625 792.925781 1531.058594 763.507812 C 1519.21875 691.460938 1484.660156 627.128906 1435.011719 578.078125 C 1373.871094 517.648438 1289.820312 480.390625 1197.128906 480.390625 C 1113.25 480.390625 1035.730469 511.078125 976.113281 562.5 C 916.472656 613.941406 874.71875 686.121094 862.402344 769.066406 "/>
<path fill-rule="nonzero" fill="rgb(0%, 0%, 0%)" fill-opacity="1" d="M 1189.609375 315.960938 C 1189.621094 310.210938 1193.519531 301.378906 1199.28125 301.390625 C 1205.03125 301.398438 1210.460938 310.25 1210.449219 316.011719 L 1210.398438 388.789062 C 1210.390625 394.550781 1205.699219 405.199219 1199.949219 405.191406 C 1194.191406 405.171875 1189.550781 394.511719 1189.558594 388.75 L 1189.609375 315.960938 "/>
<path fill-rule="nonzero" fill="rgb(0%, 0%, 0%)" fill-opacity="1" d="M 1427.839844 374.230469 C 1430.730469 369.25 1438.519531 363.558594 1443.5 366.441406 C 1448.480469 369.328125 1448.761719 379.710938 1445.871094 384.691406 L 1409.441406 447.699219 C 1406.550781 452.671875 1397.171875 459.550781 1392.191406 456.671875 C 1387.210938 453.78125 1388.519531 442.21875 1391.410156 437.238281 L 1427.839844 374.230469 "/>
<path fill-rule="nonzero" fill="rgb(0%, 0%, 0%)" fill-opacity="1" d="M 1605.03125 543.800781 C 1610.019531 540.929688 1619.621094 539.898438 1622.480469 544.890625 C 1625.351562 549.878906 1620.410156 559.011719 1615.410156 561.878906 L 1552.359375 598.230469 C 1547.371094 601.089844 1535.800781 602.359375 1532.929688 597.371094 C 1530.058594 592.378906 1536.980469 583.019531 1541.96875 580.148438 L 1605.03125 543.800781 "/>
<path fill-rule="nonzero" fill="rgb(0%, 0%, 0%)" fill-opacity="1" d="M 1673.691406 779.085938 C 1679.441406 779.097656 1688.269531 783 1688.261719 788.757812 C 1688.238281 794.511719 1679.398438 799.941406 1673.640625 799.929688 L 1600.859375 799.882812 C 1595.101562 799.871094 1584.449219 795.183594 1584.460938 789.425781 C 1584.480469 783.671875 1595.140625 779.023438 1600.898438 779.035156 L 1673.691406 779.085938 "/>
<path fill-rule="nonzero" fill="rgb(0%, 0%, 0%)" fill-opacity="1" d="M 1009.351562 438.53125 C 1012.210938 443.519531 1013.25 453.121094 1008.261719 455.988281 C 1003.269531 458.859375 994.140625 453.910156 991.273438 448.921875 L 954.921875 385.859375 C 952.054688 380.871094 950.789062 369.300781 955.78125 366.441406 C 960.769531 363.570312 970.128906 370.480469 972.996094 375.480469 L 1009.351562 438.53125 "/>
<path fill-rule="nonzero" fill="rgb(0%, 0%, 0%)" fill-opacity="1" d="M 859.515625 580.789062 C 864.492188 583.679688 870.1875 591.480469 867.300781 596.460938 C 864.410156 601.441406 854.035156 601.710938 849.054688 598.828125 L 786.046875 562.390625 C 781.066406 559.5 774.1875 550.121094 777.078125 545.140625 C 779.964844 540.160156 791.527344 541.46875 796.503906 544.359375 L 859.515625 580.789062 "/>
<path fill-rule="nonzero" fill="rgb(0%, 0%, 0%)" fill-opacity="1" d="M 800.964844 779.085938 C 806.71875 779.097656 815.546875 783 815.535156 788.757812 C 815.523438 794.511719 806.675781 799.941406 800.921875 799.929688 L 728.136719 799.882812 C 722.382812 799.871094 711.730469 795.183594 711.742188 789.425781 C 711.753906 783.671875 722.425781 779.023438 728.179688 779.035156 L 800.964844 779.085938 "/>
<path fill-rule="nonzero" fill="rgb(0%, 0%, 0%)" fill-opacity="1" d="M 883.886719 488.488281 C 879.21875 485.121094 874.332031 476.789062 877.699219 472.128906 C 881.070312 467.460938 891.425781 468.21875 896.089844 471.589844 L 898.625 473.421875 C 903.289062 476.789062 909.199219 486.808594 905.828125 491.480469 C 902.460938 496.140625 891.085938 493.691406 886.421875 490.320312 L 883.886719 488.488281 "/>
<path fill-rule="nonzero" fill="rgb(0%, 0%, 0%)" fill-opacity="1" d="M 787.175781 700.8125 C 781.566406 699.519531 773.828125 693.746094 775.121094 688.136719 C 776.414062 682.527344 786.25 679.210938 791.859375 680.5 L 794.90625 681.203125 C 800.515625 682.496094 809.851562 689.4375 808.558594 695.046875 C 807.265625 700.65625 795.828125 702.808594 790.21875 701.515625 L 787.175781 700.8125 "/>
<path fill-rule="nonzero" fill="rgb(0%, 0%, 0%)" fill-opacity="1" d="M 1608.410156 700.8125 C 1614.019531 699.519531 1621.75 693.746094 1620.460938 688.136719 C 1619.171875 682.527344 1609.328125 679.210938 1603.71875 680.5 L 1600.679688 681.203125 C 1595.070312 682.496094 1585.730469 689.4375 1587.03125 695.046875 C 1588.320312 700.65625 1599.75 702.808594 1605.359375 701.515625 L 1608.410156 700.8125 "/>
<path fill-rule="nonzero" fill="rgb(0%, 0%, 0%)" fill-opacity="1" d="M 1499.53125 488.488281 C 1504.199219 485.121094 1509.089844 476.789062 1505.71875 472.128906 C 1502.351562 467.460938 1491.988281 468.21875 1487.328125 471.589844 L 1484.789062 473.421875 C 1480.128906 476.789062 1474.21875 486.808594 1477.589844 491.480469 C 1480.960938 496.140625 1492.328125 493.691406 1497 490.320312 L 1499.53125 488.488281 "/>
<path fill-rule="nonzero" fill="rgb(0%, 0%, 0%)" fill-opacity="1" d="M 1084.488281 398.128906 C 1081.808594 393.03125 1081.128906 383.398438 1086.230469 380.71875 C 1091.320312 378.050781 1100.261719 383.328125 1102.941406 388.421875 L 1104.390625 391.191406 C 1107.070312 396.289062 1107.898438 407.890625 1102.808594 410.570312 C 1097.710938 413.25 1088.621094 405.988281 1085.941406 400.890625 L 1084.488281 398.128906 "/>
<path fill-rule="nonzero" fill="rgb(0%, 0%, 0%)" fill-opacity="1" d="M 1317.550781 398.128906 C 1320.230469 393.03125 1320.910156 383.398438 1315.808594 380.71875 C 1310.71875 378.050781 1301.78125 383.328125 1299.101562 388.421875 L 1297.648438 391.191406 C 1294.96875 396.289062 1294.140625 407.890625 1299.230469 410.570312 C 1304.328125 413.25 1313.421875 405.988281 1316.101562 400.890625 L 1317.550781 398.128906 "/>
<path fill-rule="nonzero" fill="rgb(0%, 0%, 0%)" fill-opacity="1" d="M 1071.21875 565.210938 C 1065.460938 565.210938 1056.628906 561.328125 1056.628906 555.570312 C 1056.628906 549.820312 1065.460938 544.371094 1071.21875 544.371094 L 1093.800781 544.371094 C 1099.558594 544.371094 1110.21875 549.039062 1110.21875 554.789062 C 1110.21875 560.550781 1099.558594 565.210938 1093.800781 565.210938 L 1071.21875 565.210938 "/>
<path fill-rule="nonzero" fill="rgb(0%, 0%, 0%)" fill-opacity="1" d="M 1294.960938 565.210938 C 1289.199219 565.210938 1280.371094 561.328125 1280.371094 555.570312 C 1280.371094 549.820312 1289.199219 544.371094 1294.960938 544.371094 L 1317.539062 544.371094 C 1323.300781 544.371094 1333.960938 549.039062 1333.960938 554.789062 C 1333.960938 560.550781 1323.300781 565.210938 1317.539062 565.210938 L 1294.960938 565.210938 "/>
<path fill-rule="nonzero" fill="rgb(0%, 0%, 0%)" fill-opacity="1" d="M 1173.359375 565.210938 C 1167.609375 565.210938 1158.769531 561.328125 1158.769531 555.570312 C 1158.769531 549.820312 1167.609375 544.371094 1173.359375 544.371094 L 1223.039062 544.371094 C 1228.800781 544.371094 1239.460938 549.039062 1239.460938 554.789062 C 1239.460938 560.550781 1228.800781 565.210938 1223.039062 565.210938 L 1173.359375 565.210938 "/>
<path fill-rule="nonzero" fill="rgb(0%, 0%, 0%)" fill-opacity="1" d="M 1200.460938 630.53125 C 1194.710938 630.53125 1185.871094 626.640625 1185.871094 620.890625 C 1185.871094 615.128906 1194.710938 609.679688 1200.460938 609.679688 L 1223.039062 609.679688 C 1228.800781 609.679688 1239.460938 614.351562 1239.460938 620.109375 C 1239.460938 625.859375 1228.800781 630.53125 1223.039062 630.53125 L 1200.460938 630.53125 "/>
<path fill-rule="nonzero" fill="rgb(0%, 0%, 0%)" fill-opacity="1" d="M 990.617188 630.53125 C 984.863281 630.53125 976.027344 626.640625 976.027344 620.890625 C 976.027344 615.128906 984.863281 609.679688 990.617188 609.679688 L 1042.378906 609.679688 C 1048.140625 609.679688 1058.800781 614.351562 1058.800781 620.109375 C 1058.800781 625.859375 1048.140625 630.53125 1042.378906 630.53125 L 990.617188 630.53125 "/>
<path fill-rule="nonzero" fill="rgb(0%, 0%, 0%)" fill-opacity="1" d="M 1313.199219 630.53125 C 1307.441406 630.53125 1298.609375 626.640625 1298.609375 620.890625 C 1298.609375 615.128906 1307.441406 609.679688 1313.199219 609.679688 L 1382.859375 609.679688 C 1388.609375 609.679688 1399.269531 614.351562 1399.269531 620.109375 C 1399.269531 625.859375 1388.609375 630.53125 1382.859375 630.53125 L 1313.199219 630.53125 "/>
<path fill-rule="nonzero" fill="rgb(0%, 0%, 0%)" fill-opacity="1" d="M 1104.570312 630.53125 C 1098.820312 630.53125 1089.980469 626.640625 1089.980469 620.890625 C 1089.980469 615.128906 1098.820312 609.679688 1104.570312 609.679688 L 1110.828125 609.679688 C 1116.578125 609.679688 1127.238281 614.351562 1127.238281 620.109375 C 1127.238281 625.859375 1116.578125 630.53125 1110.828125 630.53125 L 1104.570312 630.53125 "/>
<path fill-rule="nonzero" fill="rgb(0%, 0%, 0%)" fill-opacity="1" d="M 1175.449219 521.441406 C 1169.691406 521.441406 1160.859375 517.550781 1160.859375 511.800781 C 1160.859375 506.039062 1169.691406 500.589844 1175.449219 500.589844 L 1181.699219 500.589844 C 1187.460938 500.589844 1198.121094 505.261719 1198.121094 511.019531 C 1198.121094 516.769531 1187.460938 521.441406 1181.699219 521.441406 L 1175.449219 521.441406 "/>
<path fill-rule="nonzero" fill="rgb(0%, 0%, 0%)" fill-opacity="1" d="M 1252.570312 690.285156 C 1246.820312 690.285156 1237.980469 686.398438 1237.980469 680.644531 C 1237.980469 674.890625 1246.820312 669.441406 1252.570312 669.441406 L 1275.160156 669.441406 C 1280.910156 669.441406 1291.570312 674.109375 1291.570312 679.859375 C 1291.570312 685.617188 1280.910156 690.285156 1275.160156 690.285156 L 1252.570312 690.285156 "/>
<path fill-rule="nonzero" fill="rgb(0%, 0%, 0%)" fill-opacity="1" d="M 1529.011719 1053.234375 C 1523.25 1053.234375 1513.71875 1057.902344 1513.71875 1063.660156 C 1513.71875 1069.414062 1523.25 1074.082031 1529.011719 1074.082031 L 1770.808594 1074.082031 C 1776.570312 1074.082031 1781.238281 1069.414062 1781.238281 1063.660156 C 1781.238281 1061.320312 1780.46875 1059.164062 1779.171875 1057.425781 L 1726.898438 974.75 C 1717.511719 958.488281 1725.941406 952.976562 1744.148438 953.179688 L 1800 953.179688 C 1805.75 953.179688 1818.238281 948.511719 1818.238281 942.757812 C 1818.238281 937 1805.75 932.335938 1800 932.335938 L 1694.378906 932.335938 L 1694.378906 932.363281 C 1692.480469 932.363281 1690.570312 932.878906 1688.839844 933.964844 C 1683.988281 937.019531 1682.53125 943.4375 1685.589844 948.292969 L 1733.679688 1024.371094 C 1745.738281 1045.265625 1740.660156 1053.234375 1720.089844 1053.234375 L 1529.011719 1053.234375 "/>
<path fill-rule="nonzero" fill="rgb(0%, 0%, 0%)" fill-opacity="1" d="M 870.992188 1053.234375 C 876.746094 1053.234375 886.277344 1057.902344 886.277344 1063.660156 C 886.277344 1069.414062 876.746094 1074.082031 870.992188 1074.082031 L 629.1875 1074.082031 C 623.433594 1074.082031 618.765625 1069.414062 618.765625 1063.660156 C 618.765625 1061.320312 619.535156 1059.164062 620.835938 1057.425781 L 673.101562 974.75 C 682.488281 958.488281 674.0625 952.976562 655.851562 953.179688 L 600.003906 953.179688 C 594.246094 953.179688 581.765625 948.511719 581.765625 942.757812 C 581.765625 937 594.246094 932.335938 600.003906 932.335938 L 705.621094 932.335938 L 705.621094 932.363281 C 707.515625 932.363281 709.433594 932.878906 711.15625 933.964844 C 716.015625 937.019531 717.472656 943.4375 714.414062 948.292969 L 666.320312 1024.371094 C 654.257812 1045.265625 659.335938 1053.234375 679.910156 1053.234375 L 870.992188 1053.234375 "/>
<path fill-rule="nonzero" fill="rgb(0%, 0%, 0%)" fill-opacity="1" d="M 792.03125 1245.230469 L 792.03125 1226.960938 C 792.03125 1225.953125 791.167969 1225.121094 790.089844 1225.121094 L 760.574219 1225.121094 L 760.574219 1154.730469 C 760.574219 1153.710938 759.714844 1152.878906 758.636719 1152.878906 L 734.605469 1152.878906 C 733.527344 1152.878906 732.667969 1153.710938 732.667969 1154.730469 L 732.667969 1245.230469 C 732.667969 1246.234375 733.527344 1247.066406 734.605469 1247.066406 L 790.089844 1247.066406 C 791.167969 1247.066406 792.03125 1246.25 792.03125 1245.230469 "/>
<path fill-rule="nonzero" fill="rgb(0%, 0%, 0%)" fill-opacity="1" d="M 857.890625 1151.46875 C 828.789062 1151.46875 805.242188 1173.460938 805.242188 1200.632812 C 805.242188 1227.804688 828.789062 1249.800781 857.890625 1249.800781 C 886.992188 1249.800781 910.542969 1227.789062 910.542969 1200.632812 C 910.542969 1173.476562 886.992188 1151.46875 857.890625 1151.46875 Z M 857.890625 1223.144531 C 844.566406 1223.144531 833.777344 1213.066406 833.777344 1200.632812 C 833.777344 1188.199219 844.566406 1178.121094 857.890625 1178.121094 C 871.214844 1178.121094 882.003906 1188.199219 882.003906 1200.632812 C 882.003906 1213.066406 871.214844 1223.144531 857.890625 1223.144531 "/>
<path fill-rule="nonzero" fill="rgb(0%, 0%, 0%)" fill-opacity="1" d="M 997.320312 1214.683594 C 1004.378906 1209.296875 1008.988281 1200.035156 1008.988281 1186.566406 C 1008.96875 1163.695312 995.796875 1152.878906 979.535156 1152.878906 L 932.289062 1152.878906 C 931.210938 1152.878906 930.351562 1153.695312 930.351562 1154.714844 L 930.351562 1246.582031 C 930.351562 1247.601562 931.210938 1248.417969 932.289062 1248.417969 L 956.320312 1248.417969 C 957.394531 1248.417969 958.257812 1247.601562 958.257812 1246.582031 L 958.257812 1222.46875 C 971.101562 1223.253906 979.269531 1231.210938 979.851562 1246.613281 C 979.886719 1247.601562 980.730469 1248.417969 981.789062 1248.417969 L 1007.53125 1248.417969 C 1008.621094 1248.417969 1009.519531 1247.554688 1009.480469 1246.535156 C 1009.089844 1233.144531 1004.558594 1222.5 997.320312 1214.683594 Z M 958.257812 1177.367188 C 958.257812 1176.898438 958.6875 1176.519531 959.21875 1176.519531 L 970.589844 1176.519531 C 976.253906 1176.519531 980.847656 1180.617188 980.847656 1187.398438 C 980.847656 1194.179688 976.253906 1198.277344 970.589844 1198.277344 L 959.21875 1198.277344 C 958.6875 1198.277344 958.257812 1197.902344 958.257812 1197.414062 L 958.257812 1177.367188 "/>
<path fill-rule="nonzero" fill="rgb(0%, 0%, 0%)" fill-opacity="1" d="M 1031.230469 1247.066406 L 1089.660156 1247.066406 C 1090.738281 1247.066406 1091.601562 1246.234375 1091.601562 1245.230469 L 1091.601562 1226.488281 C 1091.601562 1225.46875 1090.71875 1224.652344 1089.660156 1224.652344 L 1057.199219 1224.652344 L 1057.199219 1211.183594 L 1085.238281 1211.183594 C 1086.320312 1211.183594 1087.179688 1210.351562 1087.179688 1209.34375 L 1087.179688 1190.601562 C 1087.179688 1189.582031 1086.300781 1188.765625 1085.238281 1188.765625 L 1057.199219 1188.765625 L 1057.199219 1175.296875 L 1089.660156 1175.296875 C 1090.738281 1175.296875 1091.601562 1174.464844 1091.601562 1173.460938 L 1091.601562 1154.714844 C 1091.601562 1153.695312 1090.71875 1152.878906 1089.660156 1152.878906 L 1031.230469 1152.878906 C 1030.148438 1152.878906 1029.289062 1153.695312 1029.289062 1154.714844 L 1029.289062 1245.230469 C 1029.289062 1246.25 1030.171875 1247.066406 1031.230469 1247.066406 "/>
<path fill-rule="nonzero" fill="rgb(0%, 0%, 0%)" fill-opacity="1" d="M 1182.339844 1153.398438 C 1173.230469 1161.984375 1161.058594 1193.617188 1161.058594 1193.617188 C 1161.058594 1193.617188 1148.910156 1161.984375 1139.800781 1153.398438 C 1139.429688 1153.050781 1138.949219 1152.878906 1138.460938 1152.878906 L 1113.269531 1152.878906 C 1112.191406 1152.878906 1111.328125 1153.695312 1111.328125 1154.730469 L 1111.328125 1245.214844 C 1111.328125 1246.234375 1112.191406 1247.066406 1113.269531 1247.066406 L 1137.300781 1247.066406 C 1138.371094 1247.066406 1139.238281 1246.234375 1139.238281 1245.214844 L 1139.238281 1199.453125 L 1146.628906 1228.984375 C 1146.828125 1229.816406 1147.621094 1230.394531 1148.519531 1230.394531 L 1173.640625 1230.394531 C 1174.539062 1230.394531 1175.328125 1229.816406 1175.53125 1228.984375 L 1182.921875 1199.453125 L 1182.921875 1245.214844 C 1182.921875 1246.234375 1183.78125 1247.066406 1184.859375 1247.066406 L 1208.890625 1247.066406 C 1209.96875 1247.066406 1210.828125 1246.234375 1210.828125 1245.214844 L 1210.828125 1154.730469 C 1210.828125 1153.710938 1209.96875 1152.878906 1208.890625 1152.878906 L 1183.679688 1152.878906 C 1183.191406 1152.878906 1182.691406 1153.050781 1182.339844 1153.398438 "/>
<path fill-rule="nonzero" fill="rgb(0%, 0%, 0%)" fill-opacity="1" d="M 1256.519531 1247.066406 C 1257.601562 1247.066406 1258.460938 1246.234375 1258.460938 1245.214844 L 1258.460938 1154.730469 C 1258.460938 1153.695312 1257.601562 1152.878906 1256.519531 1152.878906 L 1232.488281 1152.878906 C 1231.410156 1152.878906 1230.550781 1153.695312 1230.550781 1154.730469 L 1230.550781 1245.214844 C 1230.550781 1246.234375 1231.410156 1247.066406 1232.488281 1247.066406 L 1256.519531 1247.066406 "/>
<path fill-rule="nonzero" fill="rgb(0%, 0%, 0%)" fill-opacity="1" d="M 1278.191406 1245.214844 C 1278.191406 1246.234375 1279.050781 1247.066406 1280.121094 1247.066406 L 1304.148438 1247.066406 C 1305.230469 1247.066406 1306.089844 1246.234375 1306.089844 1245.214844 L 1306.089844 1220.304688 L 1327.371094 1220.304688 C 1343.648438 1220.304688 1356.820312 1209.472656 1356.820312 1186.597656 C 1356.820312 1163.726562 1343.628906 1152.894531 1327.371094 1152.894531 L 1280.121094 1152.894531 C 1279.050781 1152.894531 1278.191406 1153.710938 1278.191406 1154.730469 Z M 1318.421875 1198.292969 L 1307.050781 1198.292969 C 1306.519531 1198.292969 1306.089844 1197.886719 1306.089844 1197.367188 L 1306.089844 1175.828125 C 1306.089844 1175.3125 1306.519531 1174.902344 1307.050781 1174.902344 L 1318.421875 1174.902344 C 1324.089844 1174.902344 1328.679688 1179.316406 1328.679688 1186.597656 C 1328.679688 1193.882812 1324.089844 1198.292969 1318.421875 1198.292969 "/>
<path fill-rule="nonzero" fill="rgb(0%, 0%, 0%)" fill-opacity="1" d="M 1437.679688 1156.113281 C 1437.78125 1155.109375 1437.039062 1154.214844 1435.980469 1154.105469 C 1432.101562 1153.710938 1422.898438 1152.878906 1414.398438 1152.878906 C 1391.199219 1152.878906 1376.511719 1162.03125 1376.511719 1179.910156 C 1376.511719 1197.777344 1389.75 1207.871094 1401.519531 1210.632812 C 1413.289062 1213.378906 1414.398438 1219.644531 1414.398438 1221.324219 C 1414.398438 1222.988281 1413.121094 1228.953125 1403.289062 1228.796875 C 1396.230469 1228.746094 1389.160156 1227.445312 1385.738281 1226.722656 C 1384.601562 1226.488281 1383.519531 1227.257812 1383.410156 1228.339844 L 1381.53125 1246.675781 C 1381.441406 1247.664062 1382.179688 1248.542969 1383.210938 1248.667969 C 1386.609375 1249.03125 1394.378906 1249.800781 1404.261719 1249.800781 C 1431.328125 1249.800781 1442.140625 1240.648438 1442.140625 1222.765625 C 1442.140625 1204.886719 1428.921875 1194.808594 1417.128906 1192.046875 C 1405.371094 1189.300781 1404.261719 1183.035156 1404.261719 1181.355469 C 1404.261719 1179.691406 1405.53125 1173.726562 1415.359375 1173.882812 C 1422.5 1174.007812 1429.960938 1175.328125 1433.511719 1176.050781 C 1434.628906 1176.269531 1435.730469 1175.515625 1435.828125 1174.433594 L 1437.679688 1156.113281 "/>
<path fill-rule="nonzero" fill="rgb(0%, 0%, 0%)" fill-opacity="1" d="M 1546 1152.878906 L 1522.039062 1152.878906 C 1520.960938 1152.878906 1520.101562 1153.695312 1520.101562 1154.714844 L 1520.101562 1211.746094 C 1520.101562 1218.875 1516.441406 1227.289062 1504.988281 1227.289062 C 1493.53125 1227.289062 1489.859375 1218.875 1489.859375 1211.746094 L 1489.839844 1154.714844 C 1489.839844 1153.695312 1488.980469 1152.878906 1487.921875 1152.878906 L 1463.890625 1152.878906 C 1462.808594 1152.878906 1461.949219 1153.695312 1461.949219 1154.714844 L 1461.949219 1211.246094 C 1461.949219 1228.9375 1472.398438 1249.800781 1504.96875 1249.800781 C 1537.5 1249.800781 1547.941406 1228.9375 1547.941406 1211.246094 L 1547.941406 1154.714844 C 1547.941406 1153.695312 1547.078125 1152.878906 1546 1152.878906 "/>
<path fill-rule="nonzero" fill="rgb(0%, 0%, 0%)" fill-opacity="1" d="M 1638.761719 1153.398438 C 1629.648438 1161.984375 1617.480469 1193.617188 1617.480469 1193.617188 C 1617.480469 1193.617188 1605.339844 1161.984375 1596.21875 1153.398438 C 1595.859375 1153.050781 1595.378906 1152.878906 1594.878906 1152.878906 L 1569.691406 1152.878906 C 1568.609375 1152.878906 1567.75 1153.695312 1567.75 1154.730469 L 1567.75 1245.214844 C 1567.75 1246.234375 1568.609375 1247.066406 1569.691406 1247.066406 L 1593.71875 1247.066406 C 1594.800781 1247.066406 1595.660156 1246.234375 1595.660156 1245.214844 L 1595.660156 1199.453125 L 1603.050781 1228.984375 C 1603.25 1229.816406 1604.039062 1230.394531 1604.941406 1230.394531 L 1630.058594 1230.394531 C 1630.960938 1230.394531 1631.75 1229.816406 1631.949219 1228.984375 L 1639.339844 1199.453125 L 1639.339844 1245.214844 C 1639.339844 1246.234375 1640.199219 1247.066406 1641.28125 1247.066406 L 1665.308594 1247.066406 C 1666.390625 1247.066406 1667.25 1246.234375 1667.25 1245.214844 L 1667.25 1154.730469 C 1667.25 1153.710938 1666.390625 1152.878906 1665.308594 1152.878906 L 1640.101562 1152.878906 C 1639.609375 1152.878906 1639.109375 1153.050781 1638.761719 1153.398438 "/>
<path fill-rule="nonzero" fill="rgb(0%, 0%, 0%)" fill-opacity="1" d="M 911.222656 1250.96875 C 911.152344 1249.292969 910.59375 1247.699219 910.351562 1246.066406 C 908.929688 1250.820312 906.628906 1255.332031 905.621094 1260.207031 C 903.199219 1266.566406 902.542969 1273.597656 900.628906 1279.929688 C 901.96875 1278.003906 903.667969 1276.183594 904.660156 1273.878906 C 907.433594 1269.527344 907.847656 1264.289062 910.203125 1259.699219 C 911.113281 1256.820312 910.539062 1253.832031 911.222656 1250.96875 Z M 942.621094 1318.976562 C 950.683594 1318.496094 954.285156 1305.292969 952.839844 1298.679688 C 951.890625 1297.539062 951.378906 1295.933594 950.589844 1294.660156 C 948.6875 1292.144531 945.941406 1289.933594 942.730469 1289.933594 C 942.703125 1289.933594 942.6875 1289.933594 942.675781 1289.933594 C 937.9375 1291.019531 935.148438 1295.425781 933.785156 1299.734375 C 934.722656 1303.257812 933.597656 1306.980469 934.265625 1310.515625 C 935.058594 1312.859375 935.457031 1315.511719 937.480469 1317.15625 C 939.019531 1318.054688 940.867188 1318.671875 942.59375 1318.976562 Z M 1051.46875 1293.109375 C 1051.488281 1291.96875 1051.691406 1290.84375 1051.570312 1289.761719 C 1051.308594 1289.089844 1050.429688 1288.5 1049.871094 1288.5 C 1049.210938 1288.539062 1048.71875 1289.15625 1048.390625 1289.613281 C 1046.71875 1292.945312 1044.109375 1295.546875 1041.578125 1298.195312 C 1041.019531 1301.222656 1037.53125 1303.539062 1038.441406 1306.738281 C 1038.5 1306.832031 1038.539062 1306.898438 1038.648438 1307.007812 C 1038.648438 1307.007812 1038.648438 1307.007812 1038.660156 1307.019531 C 1038.769531 1307.035156 1038.871094 1307.035156 1038.980469 1307.046875 C 1042.941406 1306.78125 1045.171875 1303.566406 1047.71875 1300.941406 C 1050.460938 1299.066406 1050.949219 1296.066406 1051.46875 1293.109375 Z M 1180.011719 1295.824219 C 1181.179688 1295.210938 1182.890625 1295.8125 1182.421875 1297.378906 C 1182.089844 1298.4375 1180.871094 1298.703125 1180.140625 1299.359375 C 1179.679688 1299.589844 1179.191406 1300.203125 1178.738281 1300.40625 C 1178.148438 1300.992188 1177.511719 1301.570312 1177.160156 1302.105469 C 1173.570312 1305.828125 1169.671875 1309.378906 1166.769531 1313.648438 C 1166.261719 1314.480469 1165.441406 1315.175781 1165 1316.03125 C 1164.808594 1316.890625 1164.699219 1317.773438 1164.238281 1318.550781 C 1162.839844 1321.078125 1160.378906 1322.902344 1157.820312 1324.09375 C 1156.121094 1325.246094 1154.378906 1326.570312 1152.199219 1326.382812 C 1150.871094 1326.234375 1149.410156 1326.421875 1148.109375 1325.914062 C 1145.738281 1324.734375 1144.730469 1322.257812 1144.710938 1319.753906 C 1142.171875 1316.085938 1141.851562 1311.722656 1140.710938 1307.488281 C 1140.46875 1306.523438 1140.511719 1305.535156 1140.578125 1304.527344 C 1139.660156 1305.332031 1138.75 1306.121094 1137.859375 1306.941406 C 1136.199219 1308.855469 1134.578125 1310.984375 1132.089844 1311.867188 C 1128.988281 1313.808594 1127.320312 1317.332031 1124.851562 1319.929688 C 1123.78125 1321.507812 1121.988281 1323.867188 1119.898438 1323.597656 C 1119.359375 1323.625 1118.78125 1323.585938 1118.589844 1323.464844 C 1110.789062 1320.894531 1111.519531 1309.242188 1111.441406 1302.507812 C 1111.261719 1300.285156 1112.800781 1297.59375 1110.96875 1295.867188 C 1110.671875 1295.679688 1110.191406 1295.867188 1109.910156 1296.078125 C 1108.171875 1297.765625 1106.800781 1299.9375 1104.679688 1301.183594 C 1104.410156 1301.261719 1104.148438 1301.367188 1103.898438 1301.476562 C 1100.78125 1305.226562 1097.269531 1308.601562 1094.238281 1312.378906 C 1093.039062 1313.609375 1091.449219 1314.371094 1090.191406 1315.523438 C 1089.019531 1316.636719 1088.578125 1318.132812 1087.589844 1319.367188 C 1085.5 1321.507812 1084.359375 1322.753906 1083.050781 1325.539062 C 1081.070312 1329.113281 1077.179688 1331.777344 1073.019531 1331.191406 C 1069.390625 1331.460938 1069.199219 1327.910156 1069.769531 1325.191406 C 1070.019531 1323.984375 1069.589844 1322.742188 1069.890625 1321.535156 C 1070.140625 1320.800781 1070.289062 1320.117188 1070.308594 1319.328125 C 1068.730469 1321.09375 1066.121094 1323.328125 1063.660156 1324.453125 C 1061.878906 1326.210938 1059.621094 1327.402344 1057.53125 1328.808594 C 1053.820312 1331.671875 1049.339844 1334.257812 1044.578125 1334.257812 C 1044.179688 1334.257812 1043.78125 1334.230469 1043.390625 1334.203125 C 1037.898438 1333.210938 1032.578125 1330.050781 1029.570312 1325.339844 C 1027.71875 1324.148438 1027.171875 1321.925781 1026.460938 1320.007812 C 1026.230469 1319.726562 1026.058594 1319.433594 1025.949219 1319.113281 C 1025.558594 1319.980469 1024.949219 1320.800781 1024.339844 1321.523438 C 1022.308594 1324.253906 1020.171875 1326.746094 1017.371094 1328.726562 C 1016.078125 1329.609375 1015 1330.65625 1013.789062 1331.578125 C 1011.960938 1332.488281 1009.679688 1332.460938 1007.660156 1332.449219 C 1005.171875 1331.914062 1003.191406 1330.210938 1001.621094 1328.285156 C 999.960938 1327.429688 998.582031 1325.445312 997.898438 1323.773438 C 994.699219 1318.523438 994.417969 1311.785156 996.199219 1306.003906 C 997.335938 1303.59375 998.863281 1301.113281 998.179688 1298.382812 C 996.546875 1296.894531 995.285156 1293.242188 994.589844 1292.8125 C 992.355469 1295.25 991.605469 1298.703125 989.355469 1301.113281 C 987.882812 1303.617188 987.253906 1306.699219 985.191406 1308.8125 C 983.488281 1312.765625 982.269531 1316.851562 980.089844 1320.613281 C 978.992188 1323.328125 977.8125 1325.886719 976.582031 1328.484375 C 976.109375 1330.050781 975.46875 1332.648438 973.367188 1332.289062 C 970.808594 1329.691406 969.5625 1325.792969 969.28125 1322.230469 C 969.003906 1320.71875 968.011719 1319.445312 968.507812 1317.878906 C 969.082031 1316.394531 970.273438 1315.136719 971.023438 1313.796875 C 972.765625 1308.292969 976.246094 1303.578125 978.121094 1298.222656 C 978.121094 1298.210938 978.121094 1298.210938 978.121094 1298.210938 C 976.980469 1298.023438 975.949219 1298.4375 974.921875 1298.851562 C 973.914062 1299.253906 972.910156 1299.65625 971.8125 1299.507812 C 970.835938 1299.667969 969.832031 1299.535156 968.828125 1299.386719 C 968.0625 1299.28125 967.300781 1299.171875 966.578125 1299.214844 C 965.425781 1299.238281 964.460938 1299.777344 963.296875 1299.667969 C 963.472656 1301.597656 963.457031 1303.941406 962.707031 1305.789062 C 962.652344 1306.324219 962.546875 1306.859375 962.320312 1307.394531 C 962.292969 1313.421875 959.761719 1319.6875 955.796875 1324.253906 C 953.105469 1327.949219 949.625 1332.421875 944.578125 1332.71875 C 942.515625 1332.957031 940.585938 1331.980469 938.847656 1331.097656 C 935.578125 1330.226562 932.847656 1328.203125 929.621094 1327.359375 C 926.339844 1324.976562 922.402344 1320.800781 921.800781 1316.488281 C 919.535156 1319.421875 916.753906 1321.949219 914.058594 1324.453125 C 912.546875 1326.558594 910.484375 1328.175781 908.464844 1329.71875 C 906.640625 1331.792969 904.457031 1333.507812 901.511719 1333.160156 C 899.917969 1333.09375 898.566406 1332.449219 897.882812 1330.964844 C 894.832031 1327.628906 892.96875 1323.421875 891.429688 1319.246094 C 890.410156 1316.703125 888.992188 1313.769531 888.777344 1310.957031 C 888.109375 1309.484375 887.734375 1307.890625 887.867188 1306.164062 C 887.921875 1298.234375 889.046875 1290.414062 890.492188 1282.691406 C 891.214844 1277.078125 892.59375 1271.453125 893.238281 1265.882812 C 893.691406 1262.722656 893.828125 1259.257812 895.097656 1256.296875 C 895.433594 1254.246094 895.929688 1252.226562 896.773438 1250.339844 C 898.433594 1247.738281 898.675781 1244.714844 900 1241.929688 C 901.941406 1237.644531 904.457031 1233.734375 906.746094 1229.621094 C 908.703125 1227.304688 908.972656 1222.433594 912.800781 1222.78125 C 918.492188 1223.4375 917.570312 1228.308594 918.035156 1232.570312 C 919.871094 1236.988281 919.738281 1241.941406 919.511719 1246.628906 C 919.214844 1252.734375 919.214844 1258.867188 917.261719 1264.707031 C 912.53125 1275.257812 907.191406 1285.582031 901.296875 1295.425781 C 900.027344 1298.945312 900.269531 1303.269531 900.105469 1307.085938 C 900.601562 1311.613281 898.5 1319.648438 904.152344 1321.09375 C 904.433594 1320.90625 904.714844 1320.757812 905.007812 1320.613281 C 906.722656 1319.21875 907.898438 1317.398438 909.84375 1315.441406 C 914.152344 1311.882812 918.265625 1307.929688 921.410156 1303.296875 C 922.644531 1295.945312 928.160156 1289.34375 933.929688 1284.886719 C 936.691406 1282.355469 939.460938 1281.203125 943.226562 1281.632812 C 943.960938 1281.390625 944.09375 1280.292969 944.859375 1279.957031 C 945.914062 1279.179688 947.335938 1279.273438 948.515625 1279.785156 C 949.15625 1279.757812 950.011719 1280.078125 950.46875 1280.199219 C 954.632812 1282.648438 957.21875 1287.230469 961.328125 1289.800781 C 964.570312 1291.328125 968.332031 1291.726562 971.867188 1291.488281 C 974.746094 1291.527344 977.546875 1290.816406 980.289062 1290.015625 C 983.355469 1287.148438 984.519531 1281.765625 987.789062 1278.429688 C 989.488281 1276.34375 993.8125 1272.902344 996.464844 1274.855469 C 997.726562 1277.144531 997.296875 1279.902344 997.9375 1282.394531 C 997.898438 1283.453125 998.058594 1284.121094 998.621094 1284.777344 C 998.621094 1284.777344 998.621094 1284.777344 998.636719 1284.792969 C 999.035156 1285.007812 999.410156 1285.328125 999.703125 1285.460938 C 1002.988281 1286.707031 1004.859375 1289.949219 1006.789062 1292.652344 C 1011.03125 1296.894531 1013.28125 1300.085938 1009.359375 1305.613281 C 1007.371094 1307.957031 1006.371094 1311.535156 1007.46875 1314.371094 C 1008.140625 1315.992188 1008.828125 1318.054688 1010.429688 1318.84375 C 1012.050781 1319.460938 1013.390625 1318.628906 1014.738281 1317.8125 C 1015.800781 1317.171875 1016.871094 1316.527344 1018.109375 1316.566406 C 1019.910156 1314.078125 1020.5 1310.890625 1022.640625 1308.695312 C 1023.25 1308.425781 1023.691406 1308.226562 1024.058594 1308.023438 C 1024.320312 1307.476562 1024.640625 1306.820312 1024.570312 1306.617188 C 1025.160156 1297.085938 1031.199219 1288.96875 1037.800781 1282.488281 C 1041.230469 1280.011719 1044.910156 1277.066406 1049.300781 1276.824219 C 1054.960938 1276.769531 1060.328125 1280.558594 1060.621094 1286.464844 C 1061.140625 1292.210938 1062.371094 1298.636719 1059.199219 1303.859375 C 1056.601562 1307.757812 1052.121094 1309.617188 1048.171875 1311.695312 C 1045.539062 1313.140625 1042.859375 1315.015625 1039.878906 1315.363281 C 1039.578125 1315.496094 1039.28125 1315.605469 1038.949219 1315.671875 C 1038.78125 1315.765625 1038.699219 1315.84375 1038.589844 1315.992188 C 1037.980469 1317.199219 1038.710938 1318.5625 1039.128906 1319.753906 C 1039.558594 1320.972656 1040.351562 1322.257812 1041.699219 1322.554688 C 1043.878906 1322.59375 1046.320312 1322.5 1048.511719 1322.726562 C 1051.648438 1320.636719 1055.890625 1319.996094 1059.160156 1318.09375 C 1065.449219 1313.742188 1072.699219 1308.695312 1073.78125 1300.566406 C 1074.269531 1297.96875 1074.871094 1295.4375 1075.679688 1292.933594 C 1076.058594 1290.214844 1074.800781 1286.949219 1077.078125 1284.792969 C 1079.109375 1282.957031 1081.539062 1281.40625 1083.769531 1280.066406 C 1086.171875 1277.132812 1090.070312 1277.789062 1091.910156 1280.921875 C 1093.480469 1283.746094 1091.949219 1286.972656 1091.621094 1289.921875 C 1090.050781 1296.882812 1085.710938 1302.640625 1083.71875 1309.378906 C 1085.230469 1308.011719 1086.808594 1306.6875 1088.199219 1305.160156 C 1093.128906 1297.578125 1097.441406 1293.226562 1103.199219 1286.707031 C 1105.019531 1284.765625 1107.019531 1282.972656 1109.238281 1281.539062 C 1109.601562 1281.21875 1110.058594 1280.949219 1110.539062 1280.773438 C 1111.828125 1280.011719 1114.058594 1280.105469 1115.371094 1280.558594 C 1117.679688 1282.113281 1119.898438 1284.378906 1121 1286.960938 C 1121.46875 1290.457031 1121.230469 1294.046875 1122.070312 1297.433594 C 1121.878906 1298.785156 1122.191406 1299.992188 1122.730469 1301.222656 C 1123.410156 1302.359375 1124.25 1303.496094 1125.230469 1304.503906 C 1126.148438 1303.726562 1127.058594 1302.964844 1127.921875 1302.160156 C 1131.28125 1297.726562 1134.949219 1293.480469 1138.53125 1289.265625 C 1139.53125 1287.695312 1140.800781 1285.300781 1142.78125 1285.21875 C 1144.140625 1284.335938 1146.148438 1286.613281 1147.238281 1287.496094 C 1151.578125 1289.652344 1152.398438 1294.085938 1152.609375 1298.464844 C 1152.800781 1299.9375 1153.160156 1301.183594 1152.679688 1302.601562 C 1152.648438 1304.367188 1152.871094 1306.03125 1152.671875 1307.769531 C 1152.199219 1311.238281 1152.871094 1314.199219 1157.03125 1312.75 C 1162.160156 1309.59375 1166.488281 1304.945312 1171.289062 1301.316406 C 1173.691406 1298.824219 1176.148438 1295.410156 1180.011719 1295.824219 "/>
<path fill-rule="nonzero" fill="rgb(0%, 0%, 0%)" fill-opacity="1" d="M 1337.019531 1313.101562 C 1337.339844 1319.847656 1336 1327.320312 1332.488281 1333.078125 C 1331.101562 1334.804688 1328.628906 1334.605469 1326.660156 1334.644531 C 1325.21875 1334.777344 1323.839844 1335.609375 1322.351562 1335.339844 C 1318.960938 1335.222656 1317.078125 1331.902344 1315.398438 1329.371094 C 1312.898438 1324.910156 1313.109375 1319.40625 1310.019531 1315.351562 C 1309.179688 1314.011719 1309.460938 1312.296875 1310.488281 1311.171875 C 1311.558594 1309.402344 1312.320312 1306.351562 1314.960938 1306.714844 C 1315.710938 1306.847656 1316.339844 1307.328125 1316.75 1307.972656 C 1317.339844 1308.933594 1316.859375 1309.980469 1316.820312 1310.902344 C 1317.410156 1312.335938 1318.800781 1313.3125 1319.5 1314.652344 C 1320.449219 1315.964844 1322.179688 1317.34375 1323.871094 1317.183594 C 1324.578125 1316.957031 1324.539062 1315.695312 1324.75 1315.09375 C 1325.121094 1313.074219 1324.699219 1311.160156 1323.359375 1309.617188 C 1321.921875 1307.195312 1320.601562 1304.742188 1319.78125 1302.078125 C 1317.828125 1299.644531 1317.679688 1296.535156 1316.738281 1293.65625 C 1315.839844 1296.722656 1313.648438 1299.121094 1311.929688 1301.675781 C 1311.210938 1303.445312 1310.058594 1304.933594 1308.910156 1306.378906 C 1308.71875 1306.859375 1308.511719 1307.339844 1308.511719 1307.824219 C 1308.871094 1309.496094 1308.519531 1310.582031 1306.941406 1311.398438 C 1303.78125 1312.457031 1303.851562 1316.179688 1302.289062 1318.605469 C 1299.351562 1322.554688 1298.210938 1327.335938 1295.519531 1331.417969 C 1294.789062 1333.160156 1292.949219 1334.296875 1291.058594 1334.015625 C 1284.589844 1330.546875 1292.691406 1321.214844 1293.761719 1316.476562 C 1291.089844 1318.082031 1288.050781 1319.070312 1285.101562 1320.0625 C 1284.199219 1320.519531 1283.410156 1320.90625 1282.96875 1321.765625 C 1281.441406 1324.132812 1280.511719 1326.933594 1278.238281 1328.847656 C 1275.628906 1330.667969 1272.5 1332.089844 1269.289062 1331.378906 C 1266.628906 1330.386719 1262.578125 1328.6875 1261.511719 1325.835938 C 1260.898438 1325.164062 1260.378906 1324.453125 1260.011719 1323.730469 C 1258.308594 1319.835938 1261.171875 1315.75 1265.421875 1316.207031 C 1268.558594 1315.589844 1272.328125 1313.796875 1274.949219 1314.558594 C 1274.949219 1314.546875 1274.960938 1314.546875 1274.960938 1314.546875 C 1275.179688 1314.332031 1275.359375 1313.96875 1275.488281 1313.769531 C 1276.769531 1310.394531 1279.058594 1307.488281 1279.691406 1303.914062 C 1280.46875 1301.835938 1281.691406 1299.695312 1281.261719 1297.539062 C 1280.730469 1296.242188 1279.53125 1294.96875 1278.378906 1294.21875 C 1276.71875 1293.804688 1274.710938 1293.84375 1273.210938 1294.554688 C 1269.539062 1298.195312 1266.609375 1299.921875 1263.449219 1304.449219 C 1260.699219 1309.269531 1257.421875 1313.863281 1255.921875 1319.21875 C 1252.691406 1330.5625 1252.910156 1342.453125 1250.070312 1353.914062 C 1250.019531 1356.191406 1249.238281 1358.734375 1248.769531 1360.945312 C 1248.820312 1364.078125 1248.648438 1367.265625 1247.191406 1370.089844 C 1246.570312 1371.601562 1246.871094 1373.304688 1245.730469 1374.574219 C 1243.230469 1376.542969 1240.589844 1378.605469 1237.28125 1378.605469 C 1237.011719 1378.605469 1236.75 1378.59375 1236.480469 1378.566406 C 1231.351562 1377.777344 1233.121094 1368.777344 1233.96875 1365.203125 C 1234.671875 1362.429688 1234.621094 1359.472656 1235.851562 1356.820312 C 1236.570312 1353.539062 1236.601562 1349.925781 1237.28125 1346.5625 C 1238.390625 1343.898438 1239.570312 1341.285156 1240.78125 1338.675781 C 1243.070312 1332.933594 1243.75 1326.679688 1245.820312 1320.851562 C 1244.191406 1322.808594 1242.488281 1324.722656 1240.539062 1326.316406 C 1236.511719 1329.34375 1232.019531 1331.605469 1227.039062 1332.4375 C 1224.011719 1331.941406 1219.988281 1330.9375 1218.980469 1327.777344 C 1214.179688 1323.867188 1212.601562 1316.703125 1212.578125 1310.6875 C 1212.589844 1304.128906 1215.621094 1298.25 1217.378906 1292.089844 C 1218.71875 1289.128906 1218.351562 1280.773438 1223.160156 1282.074219 C 1224.71875 1282.007812 1226.089844 1280.601562 1227.78125 1280.84375 C 1227.960938 1280.867188 1228.160156 1280.921875 1228.339844 1280.988281 C 1229.429688 1280.640625 1230.628906 1280.773438 1231.421875 1281.804688 C 1232.699219 1284.082031 1233.179688 1287.015625 1232.601562 1289.546875 C 1231.539062 1292.15625 1231.441406 1295.007812 1230.011719 1297.460938 C 1229.058594 1300.484375 1228.929688 1303.699219 1227.308594 1306.511719 C 1226.328125 1310.476562 1223.738281 1315.027344 1226.03125 1318.976562 C 1227.109375 1318.992188 1228.28125 1319.328125 1229.269531 1319.421875 C 1231.46875 1319.019531 1233.269531 1317.476562 1235.300781 1316.621094 C 1238.46875 1315.363281 1241.738281 1313.996094 1244.539062 1312.054688 C 1246.570312 1310.152344 1248.28125 1307.957031 1249.878906 1305.640625 C 1251.25 1303.699219 1251.269531 1301.585938 1250.699219 1299.402344 C 1250.179688 1296.710938 1251.449219 1294.085938 1251.839844 1291.460938 C 1251.921875 1291.328125 1252.039062 1291.046875 1252.171875 1290.777344 C 1252.441406 1289.453125 1253.03125 1288.191406 1253.578125 1286.972656 C 1254.359375 1284.082031 1256.460938 1280.023438 1260.019531 1281.980469 C 1260.941406 1282.300781 1261.75 1282.972656 1262.320312 1283.679688 C 1264.441406 1284.605469 1264.53125 1286.921875 1264.179688 1288.914062 C 1267.96875 1286.546875 1272.328125 1282.394531 1276.238281 1280.84375 C 1279.359375 1280.304688 1283.039062 1281.445312 1285.21875 1283.707031 C 1287.679688 1285.890625 1289.320312 1289.238281 1289.019531 1292.546875 C 1289.539062 1293.242188 1290.320312 1294.5 1290.269531 1295.4375 C 1290.871094 1297.699219 1290.121094 1300.527344 1289.710938 1302.707031 C 1289.160156 1305.800781 1288.691406 1308.84375 1287.011719 1311.535156 C 1289.019531 1310.769531 1289.789062 1310.355469 1291.941406 1310.007812 C 1293.511719 1309.175781 1295.320312 1309.550781 1296.910156 1308.933594 C 1300.570312 1304.152344 1302.53125 1298.183594 1305.199219 1292.734375 C 1306.691406 1289.546875 1307.878906 1285.703125 1309.871094 1282.796875 C 1309.871094 1282.796875 1309.871094 1282.796875 1309.890625 1282.78125 C 1310.230469 1281.699219 1310.878906 1280.574219 1310.96875 1279.515625 C 1310.570312 1278.3125 1309.910156 1277 1310.761719 1275.808594 C 1311.449219 1274.601562 1312.390625 1273.488281 1313.390625 1272.566406 C 1314.488281 1271.160156 1315.261719 1269.648438 1316.839844 1268.722656 C 1318.359375 1267.183594 1321 1268.429688 1322.488281 1269.5 C 1324.078125 1272.296875 1322.328125 1277.144531 1323.261719 1280.414062 C 1325.539062 1284.859375 1328.308594 1289.464844 1329.53125 1294.421875 C 1329.859375 1295.449219 1330.640625 1296.507812 1331.148438 1297.578125 C 1332.441406 1298.917969 1333.171875 1300.6875 1334.121094 1302.265625 C 1336.429688 1305.453125 1336.410156 1309.378906 1337.019531 1313.101562 "/>
<path fill-rule="nonzero" fill="rgb(0%, 0%, 0%)" fill-opacity="1" d="M 1236.210938 1265.46875 C 1237.421875 1268.375 1236.390625 1271.628906 1233.28125 1272.714844 C 1232.101562 1272.914062 1230.878906 1273.773438 1229.691406 1273.773438 C 1229.371094 1273.773438 1229.050781 1273.71875 1228.730469 1273.558594 C 1227.128906 1272.285156 1225.28125 1271.65625 1224.050781 1270.035156 C 1222.660156 1267.878906 1223.488281 1265.109375 1223.96875 1262.804688 C 1224.988281 1260.957031 1227.238281 1260.566406 1229.011719 1259.753906 C 1230.53125 1259.109375 1232.410156 1257.929688 1234 1259.015625 C 1235.660156 1259.644531 1235.550781 1261.359375 1235.550781 1262.816406 C 1235.621094 1263.714844 1236.011719 1264.570312 1236.210938 1265.46875 "/>
<path fill-rule="nonzero" fill="rgb(0%, 0%, 0%)" fill-opacity="1" d="M 1510.238281 1294.875 C 1512.730469 1295.238281 1512.378906 1298.636719 1511.089844 1300.125 C 1508.148438 1302.964844 1504.890625 1305.492188 1501.769531 1308.171875 C 1500.308594 1310.433594 1498.449219 1312.550781 1496.738281 1314.613281 C 1494.839844 1317.492188 1493.5 1321.121094 1490.179688 1322.632812 C 1487.429688 1324.882812 1484.199219 1327.695312 1480.378906 1326.625 C 1474.738281 1324.75 1472.488281 1318 1472.300781 1312.457031 C 1471.441406 1309.953125 1470.550781 1306.242188 1470.75 1304.730469 C 1468.890625 1308.183594 1465.578125 1310.421875 1462.300781 1312.378906 C 1461.28125 1313.554688 1460.140625 1314.71875 1458.789062 1315.484375 C 1458.199219 1316.394531 1457.53125 1317.25 1456.820312 1318.066406 C 1455.441406 1320.679688 1452.828125 1323.972656 1449.628906 1323.746094 C 1442.398438 1324.644531 1441.269531 1309.671875 1441.691406 1302.84375 C 1441.410156 1301.597656 1441.179688 1300.3125 1440.789062 1299.171875 C 1439.941406 1297.980469 1440.558594 1296.550781 1440.199219 1295.238281 C 1439.070312 1296.011719 1438.640625 1297.445312 1437.75 1298.476562 C 1435.339844 1301.101562 1432.800781 1303.660156 1430.199219 1306.109375 C 1427.089844 1309.65625 1424.511719 1313.609375 1420.46875 1316.164062 C 1417.328125 1320.625 1415.628906 1326.8125 1410.449219 1329.488281 C 1408.148438 1329.824219 1406.371094 1331.953125 1403.949219 1331.378906 C 1397.148438 1329.101562 1401.480469 1320.652344 1402.109375 1315.777344 C 1402.160156 1314.519531 1402.03125 1313.074219 1402.089844 1311.664062 C 1401.878906 1311.933594 1401.648438 1312.1875 1401.449219 1312.445312 C 1400.378906 1314.597656 1398.640625 1316.378906 1397.351562 1318.253906 C 1396.789062 1319.875 1395.320312 1321.011719 1394.328125 1322.257812 C 1393.199219 1324.253906 1392.308594 1326.4375 1390.261719 1327.761719 C 1388.441406 1329.503906 1385.78125 1330.160156 1383.328125 1329.585938 C 1380.410156 1327.601562 1379.570312 1323.316406 1379.238281 1320.035156 C 1378.269531 1316.367188 1378.511719 1312.484375 1378.300781 1308.734375 C 1376.5 1311.8125 1375.53125 1315.214844 1373.839844 1318.335938 C 1372.058594 1320.878906 1370.21875 1323.304688 1368.429688 1325.875 C 1366.578125 1330.144531 1361.828125 1332.8125 1357.21875 1332.179688 C 1356.511719 1332.234375 1355.800781 1332.316406 1355.109375 1332.316406 C 1354.089844 1332.316406 1353.078125 1332.152344 1352.199219 1331.550781 C 1349.871094 1330.601562 1347.039062 1329.890625 1345.078125 1328.21875 C 1345.101562 1328.285156 1345.140625 1328.351562 1345.171875 1328.417969 C 1341.21875 1326.476562 1339.441406 1321.46875 1339 1317.332031 C 1338.261719 1312.726562 1340.199219 1308.210938 1341.429688 1303.886719 C 1341.550781 1303.296875 1341.699219 1302.695312 1341.621094 1302.144531 C 1340.441406 1298.15625 1342.75 1294.488281 1344.179688 1290.910156 C 1344.46875 1290.121094 1344.710938 1289.492188 1344.941406 1288.984375 C 1345 1287.910156 1345.210938 1286.894531 1345.890625 1285.984375 C 1348.128906 1282.367188 1352.898438 1280.464844 1357.019531 1280.347656 C 1360.921875 1281.148438 1361.359375 1286.332031 1359.269531 1289.117188 C 1355.800781 1294.648438 1355.480469 1297.339844 1353.269531 1302.628906 C 1352.859375 1303.804688 1352.921875 1304.957031 1352.871094 1306.082031 C 1352.710938 1308.066406 1351.71875 1309.699219 1351.449219 1311.574219 C 1351.089844 1314.359375 1350.238281 1317.210938 1351.519531 1319.753906 C 1352.441406 1321.507812 1354.300781 1323.117188 1356.339844 1323.183594 C 1356.96875 1323.089844 1357.660156 1322.605469 1358.03125 1322.097656 C 1358.828125 1320.558594 1360.128906 1319.515625 1360.898438 1317.972656 C 1362.890625 1313.421875 1366.179688 1309.632812 1367.691406 1304.902344 C 1368.859375 1300.417969 1369.539062 1295.90625 1372 1291.914062 C 1373.019531 1289.238281 1373.480469 1286.277344 1375.46875 1284.082031 C 1376.679688 1282.4375 1378.820312 1282.597656 1380.558594 1282.316406 C 1382.820312 1281.21875 1385.738281 1280.695312 1387.03125 1283.507812 C 1389 1288.636719 1387.421875 1294.257812 1386.71875 1299.480469 C 1386.800781 1301.972656 1387.101562 1304.527344 1386.871094 1306.980469 C 1387.339844 1309.402344 1387.261719 1311.410156 1387.980469 1313.355469 C 1388.109375 1313.757812 1388.441406 1313.941406 1388.738281 1314.105469 C 1391.808594 1312.402344 1394.488281 1309.566406 1396.878906 1307.007812 C 1399.660156 1303.644531 1400.808594 1301.71875 1404.339844 1299.320312 C 1404.660156 1298.730469 1405.011719 1298.140625 1405.210938 1297.511719 C 1405.289062 1296.589844 1405.511719 1295.664062 1405.75 1294.769531 C 1406.53125 1292.425781 1405.898438 1289.71875 1407.128906 1287.484375 C 1407.78125 1283.761719 1411.949219 1282.609375 1414.648438 1280.613281 C 1418.191406 1277.144531 1422.058594 1277.628906 1422.710938 1283.011719 C 1422.78125 1285.246094 1422.109375 1287.589844 1421.820312 1289.761719 C 1421.878906 1291.367188 1421.738281 1292.800781 1420.949219 1294.191406 C 1419.179688 1299.105469 1416.449219 1303.550781 1415.070312 1308.628906 C 1416.800781 1306.40625 1418.890625 1304.464844 1420.910156 1302.535156 C 1422.300781 1300.085938 1424.050781 1297.527344 1426.320312 1295.730469 C 1428.621094 1291.984375 1431.589844 1288.527344 1434.769531 1285.460938 C 1436.320312 1283.628906 1438.230469 1281.378906 1440.769531 1281.058594 C 1440.78125 1281.058594 1440.78125 1281.058594 1440.78125 1281.058594 C 1441.339844 1280.585938 1442.171875 1280.277344 1442.800781 1280.304688 C 1447.578125 1280.800781 1452.558594 1285.21875 1452.089844 1290.28125 C 1452.710938 1293.65625 1451.449219 1297.621094 1452.960938 1300.980469 C 1453.539062 1302.734375 1454.96875 1303.820312 1456.25 1304.984375 C 1459.199219 1300.417969 1463.578125 1296.871094 1466.621094 1292.289062 C 1468.96875 1289.597656 1471.21875 1283.320312 1475.371094 1286.4375 C 1477.089844 1287.457031 1478.691406 1288.714844 1480.148438 1290.054688 C 1481.660156 1290.992188 1482.71875 1292.53125 1482.621094 1294.367188 C 1482.519531 1299.617188 1481.5 1304.835938 1483.089844 1309.964844 C 1483.070312 1311.238281 1483.511719 1312.84375 1484.300781 1313.636719 C 1487 1313.917969 1488.960938 1311.746094 1490.898438 1310.128906 C 1494.269531 1307.835938 1497.429688 1305.359375 1499.679688 1301.917969 C 1500.730469 1300.902344 1502.421875 1300.644531 1503.5 1299.75 C 1505.539062 1297.980469 1507.441406 1295.328125 1510.238281 1294.875 "/>
<path fill-rule="nonzero" fill="rgb(0%, 0%, 0%)" fill-opacity="1" d="M 1379.308594 1042.425781 C 1379.308594 1037.65625 1382.75 1026.730469 1387.519531 1026.730469 C 1392.289062 1026.730469 1396.578125 1037.65625 1396.578125 1042.425781 L 1396.578125 1098.554688 C 1396.578125 1103.324219 1392.710938 1112.15625 1387.949219 1112.15625 C 1383.179688 1112.15625 1379.308594 1103.324219 1379.308594 1098.554688 L 1379.308594 1042.425781 "/>
<path fill-rule="nonzero" fill="rgb(0%, 0%, 0%)" fill-opacity="1" d="M 1427.960938 1068.574219 C 1430.339844 1064.445312 1438.140625 1057.6875 1442.269531 1060.070312 C 1446.398438 1062.457031 1445.300781 1073.082031 1442.910156 1077.210938 L 1427.371094 1104.132812 C 1424.980469 1108.265625 1417.21875 1113.980469 1413.089844 1111.59375 C 1408.960938 1109.210938 1410.03125 1099.628906 1412.410156 1095.496094 L 1427.960938 1068.574219 "/>
<path fill-rule="nonzero" fill="rgb(0%, 0%, 0%)" fill-opacity="1" d="M 1345.71875 1099.121094 C 1343.378906 1094.96875 1342.589844 1087.011719 1346.738281 1084.667969 C 1350.890625 1082.324219 1358.421875 1086.484375 1360.761719 1090.640625 L 1363.519531 1095.527344 C 1365.859375 1099.683594 1366.828125 1109.273438 1362.679688 1111.617188 C 1358.53125 1113.960938 1350.820312 1108.164062 1348.480469 1104.011719 L 1345.71875 1099.121094 "/>
<path fill-rule="nonzero" fill="rgb(0%, 0%, 0%)" fill-opacity="1" d="M 1020.609375 1042.425781 C 1020.609375 1037.65625 1017.171875 1026.730469 1012.398438 1026.730469 C 1007.628906 1026.730469 1003.339844 1037.65625 1003.339844 1042.425781 L 1003.339844 1098.554688 C 1003.339844 1103.324219 1007.210938 1112.15625 1011.980469 1112.15625 C 1016.75 1112.15625 1020.609375 1103.324219 1020.609375 1098.554688 L 1020.609375 1042.425781 "/>
<path fill-rule="nonzero" fill="rgb(0%, 0%, 0%)" fill-opacity="1" d="M 971.964844 1068.574219 C 969.582031 1064.445312 961.78125 1057.6875 957.652344 1060.070312 C 953.519531 1062.457031 954.625 1073.082031 957.007812 1077.210938 L 972.554688 1104.132812 C 974.9375 1108.265625 982.703125 1113.980469 986.832031 1111.59375 C 990.960938 1109.210938 989.894531 1099.628906 987.511719 1095.496094 L 971.964844 1068.574219 "/>
<path fill-rule="nonzero" fill="rgb(0%, 0%, 0%)" fill-opacity="1" d="M 1054.199219 1099.121094 C 1056.539062 1094.96875 1057.339844 1087.011719 1053.179688 1084.667969 C 1049.03125 1082.324219 1041.5 1086.484375 1039.160156 1090.640625 L 1036.398438 1095.527344 C 1034.058594 1099.683594 1033.089844 1109.273438 1037.238281 1111.617188 C 1041.398438 1113.960938 1049.101562 1108.164062 1051.441406 1104.011719 L 1054.199219 1099.121094 "/>
<path fill-rule="evenodd" fill="rgb(0%, 0%, 0%)" fill-opacity="1" d="M 985.988281 830.175781 C 996.03125 842.558594 988.347656 852.089844 980.523438 859.761719 C 979.699219 860.570312 969.6875 872.894531 967.421875 865.210938 C 966.140625 860.867188 970.640625 857.472656 964.824219 846.332031 C 959.617188 836.351562 945.871094 822.578125 954.765625 816.796875 C 962.277344 811.910156 982.78125 826.222656 985.988281 830.175781 Z M 1065.339844 771.363281 C 1063.078125 776.035156 1052.078125 786.699219 1047.28125 790.941406 C 1039.078125 798.199219 1029.980469 814.328125 1008.199219 813.058594 C 987.390625 811.847656 963.203125 784.675781 945.4375 777.117188 C 939.273438 775.671875 934.613281 777.625 931.320312 780.425781 C 920.699219 789.449219 914.710938 796.824219 905.664062 805.988281 C 902.433594 809.265625 900.679688 811.8125 897.679688 815.078125 L 871.589844 840.183594 C 833.78125 876.644531 845.496094 885.746094 827.671875 899.722656 C 821.667969 904.429688 813.4375 908.980469 807.242188 913.449219 C 800.28125 918.476562 794.332031 924.222656 787.675781 929.039062 C 780.664062 934.109375 774.1875 938.144531 767.832031 943.332031 C 748.105469 959.425781 753.386719 957.121094 729.433594 973.242188 C 716.097656 982.214844 722.921875 992.015625 728.253906 993.714844 C 741.039062 997.796875 776.457031 962.546875 789.585938 953.058594 C 804.273438 942.445312 816.160156 932.402344 829.472656 923.636719 C 873.742188 894.480469 842.074219 893.964844 892.003906 849.570312 C 905.621094 837.457031 918.183594 824.585938 936.488281 842.539062 C 941.753906 847.703125 947.050781 858.328125 941.355469 867.792969 C 922.710938 898.792969 920.9375 899.210938 898.011719 926.894531 C 894.328125 931.34375 884.546875 940.730469 889.070312 949.1875 C 900.082031 969.753906 934.921875 920.027344 947.46875 916.789062 C 950.28125 911.96875 979.800781 892.789062 995.332031 874.578125 C 1019.308594 846.460938 1056.769531 811.230469 1083.460938 783.929688 C 1096.199219 770.902344 1118.339844 742.242188 1133.75 749.527344 C 1136.929688 762.898438 1127.339844 762.953125 1126.558594 770.949219 C 1125.640625 780.570312 1136.101562 785.328125 1143.640625 779.824219 C 1148.75 776.089844 1152.78125 768.25 1156.558594 762.605469 C 1161.179688 755.710938 1171.71875 757.671875 1177.25 761.4375 C 1179.800781 763.175781 1190.578125 774.4375 1192.300781 776.496094 C 1194.851562 779.566406 1196.089844 783.210938 1194.390625 788.382812 C 1192.828125 793.136719 1191.640625 793.148438 1187.660156 795.746094 C 1166.191406 809.75 1197.230469 823.359375 1192.929688 834.148438 C 1185.078125 846.15625 1153.300781 841.109375 1137.730469 840.5625 C 1127.441406 840.199219 1116.71875 839.363281 1112.890625 847.496094 C 1105.460938 863.277344 1141.179688 880.726562 1158.96875 895.222656 C 1167.359375 902.058594 1178.53125 911.082031 1178.5 923.535156 L 1176.578125 933.292969 C 1175.109375 935.863281 1175.878906 934.535156 1174.5 935.710938 C 1173.488281 941.363281 1168.601562 943 1163.898438 946.746094 L 1128.621094 975.734375 C 1125.109375 978.855469 1119.96875 981.570312 1117.828125 987.070312 C 1114.300781 996.1875 1124.050781 1009.40625 1136.96875 996.15625 C 1146.628906 986.253906 1184.320312 956.875 1196.449219 949.183594 C 1202.859375 945.121094 1218.910156 936.503906 1222.269531 931.78125 C 1231.96875 918.148438 1213.601562 912.746094 1210.648438 907.328125 C 1205.808594 905.691406 1183.21875 888.21875 1178.898438 884.324219 C 1175.820312 881.542969 1167.988281 873.457031 1170.46875 866.945312 C 1174.371094 856.675781 1224.601562 862.078125 1232.871094 846.984375 C 1241.929688 830.464844 1212.988281 827.667969 1217.328125 810.175781 C 1222.46875 805.441406 1232.058594 805.304688 1232.679688 795.816406 C 1233.160156 788.671875 1225.101562 781.285156 1221.851562 777.097656 C 1217.601562 771.636719 1211.941406 766.023438 1207.421875 761.382812 C 1201.761719 755.570312 1202.261719 743.1875 1210.609375 740.34375 C 1222.921875 736.152344 1242.808594 756.292969 1248.679688 761.292969 C 1259.058594 770.121094 1272.511719 778.980469 1283.648438 787.605469 C 1295.589844 796.859375 1304.898438 806.113281 1316.238281 815.273438 L 1349.03125 843.769531 C 1359.601562 853.257812 1354.328125 847.367188 1364.179688 858.726562 C 1372.328125 868.132812 1368.75 871.539062 1361.808594 878.519531 C 1356.570312 883.792969 1351.71875 887.671875 1346.058594 892.886719 C 1342.308594 896.328125 1333.039062 905.3125 1328.851562 907.234375 C 1327.058594 910.628906 1318.179688 917.6875 1314.550781 920.648438 L 1255.269531 972.859375 C 1251.058594 976.8125 1244.199219 983.257812 1250.21875 990.757812 C 1256.859375 999.03125 1265 991.886719 1269.570312 988.144531 L 1313.949219 949.175781 C 1333.230469 930.441406 1367.25 903.601562 1387.730469 884.339844 C 1392.820312 879.554688 1396.980469 875.859375 1402.109375 871.609375 C 1409.089844 865.824219 1425.660156 849.605469 1432.5 845.757812 C 1449.878906 835.980469 1457.058594 857.597656 1446.871094 871.179688 C 1440.738281 879.34375 1417.988281 888.882812 1435.949219 903.46875 C 1441.941406 908.34375 1451.03125 909.832031 1454.699219 912.871094 C 1461.660156 918.632812 1451.039062 926.011719 1449.03125 929.660156 C 1441.199219 943.875 1461.96875 956.0625 1468.960938 961.859375 C 1473.960938 966 1479.351562 970.230469 1484.558594 974.390625 L 1513.578125 1000.589844 C 1516.488281 1003.039062 1517.800781 1004.605469 1520.78125 1007.433594 C 1530.769531 1016.914062 1555.511719 1041.324219 1554.871094 1009.898438 L 1500.261719 960.671875 C 1494.289062 955.378906 1486.800781 950.515625 1483.601562 942.132812 C 1478.488281 928.777344 1487.960938 924.160156 1489.039062 916.382812 C 1490.75 904.136719 1479.570312 902.5 1472.921875 897.644531 C 1462.648438 890.128906 1469.609375 880.507812 1476.199219 875.40625 C 1494.410156 861.292969 1497.160156 867.65625 1518.320312 886.355469 L 1537 902.828125 C 1550.851562 914.40625 1569.601562 932.472656 1582.960938 943.261719 L 1605.710938 963.675781 C 1612.738281 969.8125 1645.648438 997.648438 1647.511719 1001.53125 C 1652.75 1003.398438 1656.78125 1009.597656 1661.871094 1013.003906 C 1664.769531 1014.945312 1667.929688 1016.046875 1672.410156 1014.433594 C 1676.378906 1013.003906 1675.96875 1011.714844 1678.160156 1008.921875 C 1679.289062 997.707031 1673.71875 995.933594 1668.429688 991.347656 C 1663.410156 986.988281 1659.238281 982.625 1654.160156 978.511719 C 1651.5 976.363281 1649.878906 974.507812 1647.328125 972.292969 L 1625.28125 953.144531 C 1620.488281 948.8125 1616.53125 944.742188 1611.601562 940.726562 C 1589.800781 922.9375 1561.699219 895.113281 1540.070312 877.660156 L 1511.359375 852.132812 C 1508.621094 849.4375 1507.140625 848.503906 1504.28125 846.15625 L 1463.570312 806.519531 C 1460.398438 803.359375 1457.949219 802.789062 1452.320312 803.03125 C 1450.558594 804.527344 1447.859375 805.242188 1445.480469 806.507812 C 1440.421875 809.183594 1412.210938 835.636719 1404.261719 841.613281 C 1389.859375 852.421875 1381.109375 843.546875 1373.390625 837.449219 C 1360.898438 827.582031 1340.011719 807.710938 1326.679688 796.789062 C 1306.519531 780.285156 1277.519531 754.039062 1256.808594 736.089844 C 1240.941406 722.339844 1225.859375 709.019531 1210.089844 695.4375 C 1185.769531 674.5 1187.359375 675.851562 1163.398438 708.179688 C 1151.921875 723.664062 1149.761719 698.363281 1131.789062 708.734375 C 1121.378906 714.742188 1096.171875 740.488281 1086.96875 750.257812 L 1065.339844 771.363281 "/>
</svg>
